<svg version="1.0" xmlns="http://www.w3.org/2000/svg" width="768" height="768" viewBox="0 0 576 576"><path d="M261.5 1.5c-11.6 1.6-16.2 2.4-20.5 3.4-1.9.5-4.8 1.2-6.5 1.6l-3 .7 2.5 1c1.4.5 3.2 1.1 4 1.3 3.6.8 15.1 5.1 22 8.2 24.6 11.3 44.4 24.8 62.4 42.8 9.1 9.1 20.6 22.6 23.5 27.7.9 1.6 1.9 2.8 2.4 2.8.4 0 .7.7.7 1.5s.3 1.5.8 1.5c.4 0 1.9 2.1 3.2 4.7 1.4 2.7 2.8 5 3.1 5.3 2.5 1.9 17.6 36.9 19.5 45 0 .3.3 1.2.7 2 .5 1.5 1.4 5.5 2.1 9.7.2 1.1.7 2.9 1 4 .3 1 .8 3.1 1.1 4.8.2 1.6.7 4 .9 5.2.9 4.6 1.9 17.2 2 25.5.1 4.9.5 8.8.9 8.8.5 0 .6.4.2.9-.3.6-.7 4.9-1 9.8-.2 4.8-.7 10.6-1 12.8-.3 2.2-.7 5.3-.9 7-1.3 9.7-7.4 37.2-9.3 41.5-.3.8-.7 1.9-.9 2.5-1 3.9-8.2 23.3-12 32.2-8.5 20-28.8 59.5-31.7 61.4-.5.3-.9 1-.9 1.5 0 .9-4.8 9.5-5.8 10.4-.3.3-1.1 1.5-1.8 2.7-2.7 4.9-3.7 6.7-4.5 7.7-.9 1.2-3.8 5.7-7.4 11.5-1.2 2-2.2 3.9-2.3 4.3 0 .8 7.6 1 23.3.8 3.7-.1 7.1.1 7.5.4.4.3 1.4.1 2-.3.7-.4 3.3-.5 5.7-.1 2.5.4 4.7.5 4.9.2.7-.6 11.6-.8 11.6-.2 0 .3 2.7.5 6 .5s6-.2 6-.5 5.4-.3 12.1 0c6.6.3 12.2.3 12.4.1.6-.5 11.5-.7 11.5-.1 0 .3 2.8.4 6.2.2 3.5-.1 6.8-.3 7.3-.3h5c2.2.1 4.7.1 5.5 0 1.8 0 21.6 0 30.9.1 3.6.1 6.8.3 7.3.6.4.3.8.2.8-.3 0-.6 8.1-.7 25.5-.2.6.1 2.8 0 5-.1s4.5-.1 5 0c.6.1 3.1.2 5.8.1 4.6-.1 4.8-.2 6.6-4.4 4.5-9.9 5.5-12.3 5.7-13.2.1-.6 1.8-5.7 3.7-11.5 5.4-16.2 10.5-37.7 12.2-51.5.3-2.2.7-5.4.9-7 2.2-14.6 2.8-53.8 1.2-70-1.3-13.9-2.8-24.2-4.2-30.9-.3-1.1-.7-3.2-1-4.6-2.5-13.1-9.9-37.9-15.2-51.5-5.7-14.6-17.9-39.1-23.3-46.7-1.1-1.4-1.9-3-1.9-3.5 0-.6-.9-1.8-2-2.8-1.1-1-2-2.2-2-2.7 0-.7-12.3-17.9-15.5-21.5-.5-.6-2.8-3.3-5-6-7.2-8.6-27.1-27.8-36.1-34.9-4.9-3.8-9.5-7.4-10.2-8.1-.7-.7-1.7-1.3-2.2-1.3-.5 0-1.5-.6-2.2-1.3-1.6-1.6-10.7-7.7-11.4-7.7-.3 0-1.8-.9-3.4-2-8.9-6.3-43.6-21.3-56.7-24.5-1-.3-4.5-1.1-7.8-1.9-8.7-2.2-13-3-20.5-4-2.5-.3-6.1-.9-8-1.2-7-1.2-43.6-1.1-52.5.1z"/><path d="M162.8 64.5c-.2.2-1.9.6-3.8.9-8.3 1.2-10.5 1.7-17.8 4.1-7.2 2.4-19.4 7.9-21.7 9.7-.5.5-3.9 2.7-7.4 5.1-7.4 4.8-21.5 18.4-28.2 27.2-17.9 23.3-32 54.3-40.8 89.4-1.7 6.5-3.2 13.1-3.5 14.7-.2 1.6-.5 2.9-.6 2.9-.1 0-.3.9-.5 2-.8 5.4-1.6 10.2-2 12-.2 1.1-.7 4.2-1 7-.4 2.7-.8 6.1-1 7.4-2.1 12.5-2.8 55.2-1.2 70.6 1.5 14.2 2.9 24.4 4.3 30.9.3 1.1.7 3.2 1 4.6 6.1 31.5 21 69.9 37 95.7.8 1.3 1.5 2.6 1.6 3 .1.5.6 1.2 1 1.8.5.5 3.6 5 7 10 29.5 43.3 71.2 77.6 116.3 95.5 9.6 3.8 24.5 9 24.5 8.5 0-.2 1.5.2 3.4 1 1.8.8 3.6 1.2 3.8.9.3-.2 1.6 0 3 .5s4 1.2 5.9 1.5c1.9.3 4.5.8 5.9 1.1 1.4.3 4.3.7 6.5 1 2.2.3 5.6.8 7.5 1.1 5.9 1 42.1 1.2 48.5.3 3.3-.4 7.6-1 9.5-1.2 7.2-.9 16.7-2.8 22-4.2 3-.9 6.4-1.7 7.5-1.9 1.1-.2 4.3-1.1 7-2.1 2.8-1 5.5-1.8 6-1.9 4.5-.7 36.6-15.2 37.3-16.9.2-.4.8-.7 1.4-.7 1 0 12.8-6.8 13.8-7.9.3-.4 3.2-2.4 6.5-4.5 6.2-4 15.7-11.3 22.8-17.5 9.9-8.6 32.4-32.3 33.5-35.2.4-1-.2-1-13.3-.9-8.9 0-26.3 0-27.4-.2-.3 0-.8 0-1.1.1-1.3.5-12 .5-12 .1 0-.3-2.8-.4-6.2-.2-3.5.1-6.7.3-7.3.3h-5c-2.2-.1-4.7-.1-5.5 0-1.8 0-21.6 0-30.9-.1-3.6-.1-6.8-.3-7.3-.6-.4-.3-.8-.2-.8.3 0 .4-5.5.7-12.2.5-6.8-.2-13.9-.3-15.8-.2-1.9.1-4.2.2-5 .1h-7c-3 .1-6.2.1-7 0-.8-.1-3.3-.1-5.5 0s-4.6.1-5.2.1c-.7-.1-6.4-.1-12.5-.1-18.5 0-24.1-.2-25-.7-.4-.3-.8-.2-.8.3 0 .4-4.8.6-10.6.3s-10.7-.3-10.9-.1c-.6.5-11.5.7-11.5.1 0-.3-2.8-.4-6.2-.2-3.5.1-6.7.3-7.3.3h-5c-2.2-.1-4.9-.1-6-.1-1.1.1-6.8.1-12.8 0-5.9 0-11.1.1-11.5.1-.4.1-2.2.1-4.1 0l-3.3-.1 2.8-3.3c1.6-1.8 4-4.8 5.4-6.7 1.4-1.9 3.3-4.2 4.3-5.2.9-1 1.7-2.2 1.7-2.7s.3-1.1.8-1.3c.4-.2 3.2-3.5 6.2-7.3 3-3.9 5.7-7.2 6-7.5.3-.3 1.7-2.1 3-4s3-4 3.6-4.5c1.2-1.1 8.8-10.9 18.2-23.5 3.1-4.1 5.8-7.7 6.2-8 .6-.5 9.3-12.5 15.9-22 5.8-8.3 22.1-33 22.1-33.5 0-.3 1.5-2.8 3.4-5.7 5.6-8.9 17.2-31.1 22.5-43.3 1.3-2.8 2.8-6.4 3.6-8 5.4-12.4 13.2-38.3 15.1-50.1.3-2.1.7-4.1.9-4.4.9-1.4 1.9-18.1 1.9-30.5 0-20.8-1.8-32.5-8-49.5-2.8-8-11.1-24.8-13.1-26.8-.7-.7-1.3-1.8-1.3-2.3 0-.5-.6-1.7-1.4-2.6-.8-1-4.2-5.2-7.5-9.4-18.6-23.5-50.5-44.1-76.6-49.4-2.2-.5-4.2-.9-4.5-1-.3-.1-2.3-.5-4.5-1-2.2-.4-4.9-1-6-1.2-2.5-.6-33.2-1.3-33.7-.8z"/></svg>